<svg xmlns:dc="http://purl.org/dc/elements/1.1/" xmlns:cc="http://creativecommons.org/ns#" xmlns:rdf="http://www.w3.org/1999/02/22-rdf-syntax-ns#" xmlns:svg="http://www.w3.org/2000/svg" xmlns="http://www.w3.org/2000/svg" viewBox="0 0 280 280" fill="none"><metadata><rdf:RDF><cc:Work><dc:format>image/svg+xml</dc:format><dc:type rdf:resource="http://purl.org/dc/dcmitype/StillImage"/><dc:title>Avataaars</dc:title><dc:creator><cc:Agent><dc:title>Pablo Stanley</dc:title></cc:Agent></dc:creator><dc:source>https://avataaars.com/</dc:source><cc:license rdf:resource="https://avataaars.com/"/><dc:contributor><cc:Agent><dc:title>Florian Körner</dc:title></cc:Agent></dc:contributor></cc:Work></rdf:RDF></metadata><mask id="avatarsRadiusMask"><rect width="280" height="280" rx="0" ry="0" x="0" y="0" fill="#fff"/></mask><g mask="url(#avatarsRadiusMask)"><g transform="translate(40, 36)"><path d="M100 0C69.072 0 44 25.072 44 56v6.166c-5.675.952-10 5.888-10 11.834v14c0 6.052 4.48 11.058 10.305 11.881 2.067 19.806 14.458 36.541 31.695 44.73V163h-4c-39.764 0-72 32.236-72 72v9h200v-9c0-39.764-32.236-72-72-72h-4v-18.389c17.237-8.189 29.628-24.924 31.695-44.73C161.52 99.058 166 94.052 166 88V74c0-5.946-4.325-10.882-10-11.834V56c0-30.928-25.072-56-56-56z" fill="#FFDBB4"/><path d="M76 144.611v8A55.79 55.79 0 00100 158a55.789 55.789 0 0024-5.389v-8A55.789 55.789 0 01100 150a55.79 55.79 0 01-24-5.389z" fill="#000" fill-opacity=".1"/></g><g transform="translate(8, 170)"><path d="M92.68 29.936C58.295 35.366 32 65.138 32 101.052V110h200v-8.948c0-35.914-26.294-65.686-60.681-71.116a23.874 23.874 0 01-7.555 13.603l-29.085 26.229a4 4 0 01-5.358 0l-29.085-26.229a23.871 23.871 0 01-7.555-13.603z" fill="#FFFFB1"/></g><g transform="translate(86, 134)"><path fill-rule="evenodd" clip-rule="evenodd" d="M34.008 38.864C35.128 24.876 38.234 13.008 53.996 13c15.762-.008 18.92 11.943 19.998 25.994.087 1.13-.82 2.006-1.957 2.006-6.687 0-9.367-1.994-18.048-2-8.68-.006-13.232 2-17.896 2-1.144 0-2.197-.737-2.085-2.136z" fill="#000" fill-opacity=".7"/><path d="M67.024 17.573A4.982 4.982 0 0165 18H44a4.977 4.977 0 01-2.672-.773c2.897-2.66 6.95-4.224 12.668-4.227 5.95-.003 10.104 1.698 13.028 4.573z" fill="#fff"/><path d="M69.804 40.922c-2.05-.146-3.757-.477-5.547-.824C61.53 39.57 58.61 39.003 53.99 39c-5.013-.004-8.65.664-11.725 1.229-1.45.266-2.774.509-4.06.648C39.195 35.818 43.652 32 49 32c1.8 0 3.5.433 5 1.2 1.5-.767 3.2-1.2 5-1.2 5.365 0 9.832 3.84 10.804 8.922z" fill="#FF4F6D"/></g><g transform="translate(112, 122)"><path fill-rule="evenodd" clip-rule="evenodd" d="M16 8c0 4.418 5.373 8 12 8s12-3.582 12-8" fill="#000" fill-opacity=".16"/></g><g transform="translate(84, 90)"><path fill-rule="evenodd" clip-rule="evenodd" d="M16.16 27.553C18.007 31.352 22.164 34 26.998 34c4.816 0 8.961-2.63 10.817-6.407.552-1.122-.233-2.04-1.024-1.36-2.451 2.107-5.932 3.423-9.793 3.423-3.74 0-7.124-1.235-9.56-3.228-.891-.728-1.818.014-1.278 1.125zm58 0C76.007 31.352 80.164 34 84.998 34c4.816 0 8.961-2.63 10.817-6.407.552-1.122-.233-2.04-1.024-1.36-2.451 2.107-5.932 3.423-9.793 3.423-3.74 0-7.124-1.235-9.56-3.228-.891-.728-1.818.014-1.278 1.125z" fill="#000" fill-opacity=".6"/></g><g transform="translate(84, 82)"><path fill-rule="evenodd" clip-rule="evenodd" d="M22.766 1.578l.911-.402C28.92-.905 36.865-.033 41.723 2.299c.567.272.18 1.153-.402 1.108-14.919-1.151-24.963 8.146-28.375 14.44-.101.187-.407.208-.482.034-2.308-5.319 4.45-13.985 10.302-16.303zm66.468 0l-.911-.402C83.08-.905 75.135-.033 70.277 2.299c-.567.272-.18 1.153.402 1.108 14.919-1.151 24.963 8.146 28.375 14.44.101.187.407.208.483.034 2.307-5.319-4.45-13.985-10.303-16.303z" fill="#000" fill-opacity=".6"/></g><g transform="translate(7, 0)"><path d="M177.747 37.856c9.527 7.102 17.761 18.582 18.159 30.824.175 5.507-.617 11.227-1.722 16.616-.504 2.463-1.609 4.661-2.709 6.85-1.066 2.125-2.129 4.24-2.638 6.583-2.627-8.925-10.084-13.97-17.504-18.99-3.953-2.674-7.896-5.341-11.091-8.584 1.016 1.93 2.305 3.695 3.591 5.454 1.24 1.698 2.477 3.392 3.461 5.224-9.247-5.665-18.206-13.88-22.032-24.295-.707 5.398-2.716 10.39-6.108 14.666-3.011 3.796-7.582 7.87-12.295 9.34 2.427-5.507 4.502-11.217 6.407-16.925-1.784 2.316-7.221 11.286-9.611 15.23l-.764 1.26c-1.656 2.72-3.513 5.317-5.507 7.803-.933 1.163-1.929 2.287-2.931 3.391a67.9 67.9 0 01-1.787 1.895c-.041.041-.132.139-.246.261-.492.527-1.421 1.52-.666.545-1.858 2.35-4.451 4.26-6.911 6.07-.473.349-.942.695-1.4 1.039-2.852 2.144-5.96 3.968-9.19 5.476-7.097 3.313-14.383 4.538-22.114 3.199.903.101 2.352-.405 3.53-.817.466-.163.889-.311 1.22-.401 1.809-.492 3.474-1.117 5.113-2.024a53.849 53.849 0 009.176-6.418c-1.365.581-2.6 1.423-3.842 2.27-1.224.834-2.454 1.673-3.822 2.273-2.287 1.003-4.547 1.526-7.032 1.766-5.462.529-11.995-.72-16.721-3.587-5.492-3.333-8.542-9.051-9.99-15.137-1.68-7.067-.636-15.04 3.328-21.074.135 2.143 4.436 3.064 7.916 2.527 3.774-.582 6.95-6.52 10.913-13.926 6.178-11.548 14.268-26.669 29.514-30.64 19.961-5.2 34.209 3.874 35.42 4.657 1.214.784 1.795.629 2.93.326.209-.056.437-.117.691-.178 6.346-1.52 13.258-2.209 19.705-.927 6.34 1.262 12.418 4.546 17.559 8.378z" fill="#724133"/><path d="M71.933 110.752c.069.012.137.025.206.036a1.6 1.6 0 01-.206-.036zm7.073 45.439c.8-1.518 1.567-3.052 2.31-4.597A56.209 56.209 0 00109 180.611v8.999a54.395 54.395 0 01-7.726 1.96c-9.013 1.617-34.325-3.528-45.445-11.982-.848-.645-.418-1.917.67-1.992 11.66-.797 17.627-12.134 22.405-21.212l.102-.193zM157 183.053v-2.442a56.18 56.18 0 0018.127-13.713c.715 2.24 1.748 4.333 3.428 5.788 1.321 1.144 3.486 1.127 5.341 1.113h.001a31.76 31.76 0 011.202.004 69.91 69.91 0 005.016-.019c.839-.037 1.213 1.014.534 1.498a8.06 8.06 0 01-.39.262 39.194 39.194 0 01-3.25 1.812c-2.524 1.258-5.187 2.244-7.982 2.734-1.916.337-3.816.4-5.654.177a9.842 9.842 0 001.699 1.941c1.409 1.223 3.72 1.204 5.699 1.189.45-.004.883-.007 1.284.004 1.785.052 3.571.057 5.353-.02.896-.039 1.295 1.084.57 1.601a7.974 7.974 0 01-.416.28 41.968 41.968 0 01-3.468 1.937c-2.694 1.345-5.537 2.398-8.519 2.922-5.499.966-10.869-.177-15.194-3.708a24.898 24.898 0 01-3.381-3.36z" fill="#724133"/><path d="M81.315 151.594a140.115 140.115 0 01-2.309 4.597l-.102.193c-4.778 9.078-10.745 20.415-22.404 21.212-1.09.075-1.52 1.347-.671 1.992 11.12 8.454 36.432 13.599 45.445 11.982a54.395 54.395 0 007.726-1.96v-8.999a56.205 56.205 0 01-27.685-29.017zM157 180.611v2.442a24.898 24.898 0 003.381 3.36c4.325 3.531 9.695 4.674 15.194 3.708 2.982-.524 5.825-1.577 8.519-2.922a41.968 41.968 0 003.468-1.937c.139-.087.278-.181.416-.28.725-.517.326-1.64-.57-1.601a74.062 74.062 0 01-5.353.02 36.241 36.241 0 00-1.284-.004c-1.979.015-4.29.034-5.699-1.189a9.842 9.842 0 01-1.699-1.941c1.838.223 3.738.16 5.654-.177 2.795-.49 5.458-1.476 7.982-2.734a39.194 39.194 0 003.25-1.812c.13-.081.26-.17.39-.262.679-.484.305-1.535-.534-1.498a69.91 69.91 0 01-5.016.019 31.82 31.82 0 00-1.203-.004c-1.855.014-4.02.031-5.341-1.113-1.68-1.455-2.713-3.548-3.428-5.788A56.18 56.18 0 01157 180.611z" fill="#000" fill-opacity=".16"/></g><g transform="translate(69, 85)"><path d="M71 15.111c-11.038 0-12.63-9.084-35.33-10.37C12.985 3.717 5.815 10.45 5.776 15.11c.037 4.293-1.128 15.45 13.588 28.519 14.773 15.512 29.906 10.252 35.33 5.185C60.135 46.473 66.34 25.46 71 25.482c4.66.021 10.865 20.991 16.306 23.333 5.423 5.067 20.557 10.327 35.329-5.185 14.717-13.069 13.552-24.226 13.588-28.519-.038-4.662-7.209-11.394-29.894-10.37-22.7 1.286-24.292 10.37-35.33 10.37z" fill="#000" fill-opacity=".1"/><path d="M71 13.111c-11.038 0-12.63-9.084-35.33-10.37C12.985 1.717 5.815 8.449 5.776 13.11c.037 4.293-1.128 15.45 13.588 28.519 14.773 15.512 29.906 10.252 35.33 5.185C60.135 44.473 66.34 23.46 71 23.482c4.66.021 10.865 20.991 16.306 23.333 5.423 5.067 20.557 10.327 35.329-5.185 14.717-13.069 13.552-24.226 13.588-28.519-.038-4.662-7.209-11.394-29.894-10.37-22.7 1.286-24.292 10.37-35.33 10.37z" fill="#FFAFB9"/><path d="M32.953 7.926c14.262-.284 27.557 7.897 27.176 15.555-.22 5.053-2.932 22.825-19.023 23.334-16.092.489-24.808-17.793-24.46-25.926.195-3.51 2.051-12.664 16.307-12.963zm76.094 0C94.784 7.642 81.49 15.823 81.871 23.48c.22 5.053 2.932 22.825 19.023 23.334 16.091.489 24.808-17.793 24.459-25.926-.195-3.51-2.05-12.664-16.306-12.963z" fill="#2F383B"/></g></g></svg>